<svg width="92" height="95" viewBox="0 0 92 95" fill="none" xmlns="http://www.w3.org/2000/svg">
<path d="M77.5636 0H14.3636C6.43082 0 0 6.5784 0 14.6933V79.3436C0 87.4585 6.43082 94.0369 14.3636 94.0369H77.5636C85.4964 94.0369 91.9272 87.4585 91.9272 79.3436V14.6933C91.9272 6.5784 85.4964 0 77.5636 0Z" fill="#1877F2"/>
<path d="M68.9456 47.0183C68.9456 34.0882 58.6037 23.509 45.9637 23.509C33.3237 23.509 22.9819 34.0882 22.9819 47.0183C22.9819 58.7729 31.3128 68.4705 42.2292 70.2337V53.7772H36.4837V47.0183H42.2292V41.7287C42.2292 35.8514 45.6765 32.6189 50.8474 32.6189C53.4328 32.6189 56.0183 33.2066 56.0183 33.2066V39.0839H53.1456C50.2728 39.0839 49.411 40.8471 49.411 42.6103V47.0183H55.731L54.5819 53.7772H49.1237V70.5276C60.6147 68.7644 68.9456 58.7729 68.9456 47.0183Z" fill="white"/>
</svg>
