<svg width="93" height="95" viewBox="0 0 93 95" fill="none" xmlns="http://www.w3.org/2000/svg">
<path d="M78.4181 0H15.2181C7.28531 0 0.854492 6.5784 0.854492 14.6933V79.3436C0.854492 87.4585 7.28531 94.0369 15.2181 94.0369H78.4181C86.3509 94.0369 92.7817 87.4585 92.7817 79.3436V14.6933C92.7817 6.5784 86.3509 0 78.4181 0Z" fill="#0088CC"/>
<path d="M24.1234 46.1611C36.4616 40.6622 44.6891 37.0369 48.8057 35.2854C60.5595 30.2845 63.0018 29.4157 64.5937 29.3868C64.9438 29.3807 65.7266 29.4695 66.2337 29.8904C66.6619 30.2458 66.7797 30.7259 66.8361 31.0629C66.8925 31.3999 66.9627 32.1675 66.9069 32.7673C66.2699 39.6132 63.5139 56.2265 62.1118 63.894C61.5185 67.1384 60.3503 68.2263 59.2193 68.3327C56.7615 68.5641 54.8952 66.6712 52.5146 65.0749C48.7896 62.5771 46.6852 61.0222 43.0694 58.5847C38.8907 55.7679 41.5995 54.2197 43.981 51.6895C44.6042 51.0273 55.4334 40.9513 55.643 40.0373C55.6692 39.923 55.6936 39.4969 55.4461 39.2719C55.1986 39.0468 54.8334 39.1238 54.5698 39.185C54.1962 39.2717 48.2454 43.2952 36.7174 51.2555C35.0282 52.442 33.4983 53.0201 32.1275 52.9898C30.6163 52.9564 27.7094 52.1157 25.5484 51.3972C22.8979 50.5158 20.7913 50.0498 20.9748 48.553C21.0703 47.7734 22.1198 46.9761 24.1234 46.1611Z" fill="white"/>
</svg>
