<svg width="93" height="95" viewBox="0 0 93 95" fill="none" xmlns="http://www.w3.org/2000/svg">
<path d="M78.4909 0H15.2909C7.35806 0 0.927246 6.5784 0.927246 14.6933V79.3436C0.927246 87.4585 7.35806 94.0369 15.2909 94.0369H78.4909C86.4237 94.0369 92.8545 87.4585 92.8545 79.3436V14.6933C92.8545 6.5784 86.4237 0 78.4909 0Z" fill="#25D366"/>
<path fill-rule="evenodd" clip-rule="evenodd" d="M62.9783 30.268C58.6692 25.86 52.9237 23.509 46.891 23.509C34.251 23.509 23.9092 34.0882 23.9092 47.0183C23.9092 51.1324 25.0583 55.2466 27.0692 58.7729L23.9092 70.5276L35.9747 67.2951C39.4219 69.0583 43.1564 70.2337 46.891 70.2337C59.531 70.2337 69.8728 59.6545 69.8728 46.7244C69.8728 40.5533 67.2874 34.6759 62.9783 30.268ZM46.891 66.4135C43.4437 66.4135 39.9965 65.5319 37.1237 63.7687L36.5492 63.4748L29.3673 65.5319L31.3783 58.4791L30.8037 57.5975C28.7928 54.365 27.931 50.8386 27.931 47.3122C27.931 36.733 36.5492 27.917 46.891 27.917C52.0619 27.917 56.6583 29.9741 60.3928 33.5005C64.1274 37.3207 65.851 42.0226 65.851 47.3122C65.851 57.5975 57.5201 66.4135 46.891 66.4135ZM57.2328 51.7202C56.6583 51.4263 53.7856 49.957 53.211 49.957C52.6365 49.6631 52.3491 49.6631 52.0619 50.2508C51.7746 50.8386 50.6256 52.014 50.3383 52.6018C50.051 52.8956 49.7637 52.8956 49.1891 52.8956C48.6146 52.6018 46.891 52.014 44.5928 49.957C42.8692 48.4876 41.7201 46.4306 41.4328 45.8428C41.1456 45.2551 41.4328 44.9612 41.7201 44.6674C42.0074 44.3735 42.2946 44.0796 42.5819 43.7858C42.8692 43.4919 42.8692 43.1981 43.1565 42.9042C43.4438 42.6103 43.1565 42.3165 43.1565 42.0226C43.1565 41.7287 42.0074 38.7901 41.4328 37.6146C41.1456 36.733 40.571 36.733 40.2838 36.733C39.9965 36.733 39.7091 36.733 39.1346 36.733C38.8473 36.733 38.2728 36.733 37.6982 37.3207C37.1237 37.9085 35.6874 39.3778 35.6874 42.3165C35.6874 45.2551 37.6982 47.8999 37.9855 48.4876C38.2728 48.7815 42.0073 54.9527 47.7528 57.3036C52.6364 59.3607 53.4983 58.7729 54.6474 58.7729C55.7965 58.7729 58.0946 57.3036 58.3819 56.1282C58.9564 54.6588 58.9565 53.4834 58.6692 53.4834C58.3819 52.014 57.8074 52.014 57.2328 51.7202Z" fill="white"/>
</svg>
