<svg width="73" height="73" viewBox="0 0 73 73" fill="none" xmlns="http://www.w3.org/2000/svg">
<path d="M59.3894 66.6302C65.8648 63.4504 68.2772 58.9987 71.1975 53.275C71.1975 51.8759 69.6739 55.1829 62.6906 55.0557C41.5388 55.0557 24.3309 38.5505 24.3309 17.9498C24.2587 10.0654 25.1234 7.46031 29.8055 1.12653C21.1977 2.94049 18.8861 5.83261 12.2837 11.6834C6.72014 18.5162 2.3052 24.9932 2.25309 33.8147C2.25309 55.0755 18.5614 72.0971 40.392 72.0971C47.1292 72.17 53.4658 69.85 59.3894 66.6302Z" fill="#F57C00"/>
<path d="M30.266 33.7968C32.2007 34.0427 33.9828 34.946 35.7198 35.8353C36.3329 36.1494 36.9492 36.4655 37.4959 36.8848C38.0963 37.3453 38.5978 37.9198 39.0837 38.5002C41.1859 41.0083 43.125 43.7862 43.8452 46.9805C44.7845 51.1471 43.5116 55.5658 41.2942 59.2127C41.2942 59.2127 38.9463 62.2575 33.9557 58.6103C28.9651 54.9631 30.266 33.7968 30.266 33.7968Z" fill="#F58420"/>
<path d="M28.8911 24.9779C30.8259 25.2238 32.6079 26.1272 34.3449 27.0165C34.9581 27.3306 35.5744 27.6466 36.121 28.0659C36.7215 28.5265 37.2229 29.101 37.7088 29.6814C39.811 32.1895 41.7501 34.9673 42.4704 38.1617C43.4096 42.3282 42.1368 46.747 39.9193 50.3938C39.9193 50.3938 37.5714 53.4386 32.5808 49.7915C27.5903 46.1443 28.8911 24.9779 28.8911 24.9779Z" fill="#F58420"/>
<path d="M8.62559 37.0942C8.12553 36.2867 7.70009 35.3931 7.67343 34.444C7.64598 33.4943 8.1013 32.4819 8.96348 32.0853C9.82517 31.6894 11.042 32.159 11.2212 33.092C11.2926 32.4336 11.3641 31.7753 11.4355 31.1169C11.5416 30.1375 11.6685 29.1051 12.2664 28.324C12.8642 27.5428 14.1054 27.1672 14.8451 27.8155C15.1296 28.0647 15.354 28.4557 15.7318 28.4804C16.0036 27.6719 16.4878 26.9347 16.7587 26.1258C17.0109 25.3754 17.4334 24.4885 18.2219 24.4506C18.532 24.4355 18.8316 24.567 19.1027 24.7186C20.2222 25.3447 20.8941 26.3093 21.3371 27.5151C22.2034 26.414 22.7332 25.0543 23.7297 24.0689C24.7262 23.0835 26.5066 22.6311 27.4724 23.6474C27.9947 24.1963 28.1228 25.0329 27.9838 25.7783C27.8448 26.5237 27.4742 27.2026 27.1024 27.8634C28.0156 26.134 30.3083 25.288 32.1245 26.011C32.6429 26.2177 33.1587 26.5921 33.2669 27.1403C33.3392 27.5084 33.2143 27.8854 33.0687 28.2313C32.5983 29.3505 31.8964 30.3704 31.0191 31.2081C32.3692 30.2732 33.9923 29.7412 35.6336 29.6965C36.1293 29.683 36.6476 29.7192 37.0742 29.9733C38.1061 30.5891 38.0874 32.0823 37.8256 33.2574C37.5858 34.3342 37.0451 35.5759 35.9549 35.7257C37.1252 35.043 38.3108 34.3531 39.6148 33.9836C40.9183 33.615 42.3732 33.5956 43.5747 34.2231C43.7415 34.3105 43.9101 34.4166 44.0008 34.5817C44.1084 34.7766 44.0891 35.0141 44.0518 35.2341C43.7347 37.1297 42.2485 38.7779 40.3989 39.2858C41.6749 39.7277 43.1542 39.3132 44.3813 39.8764C45.6943 40.4783 46.3253 42.194 45.8165 43.5478C45.3077 44.9017 43.8059 45.7658 42.3677 45.6413C43.9767 45.5541 45.2981 45.3318 46.9099 45.3218C47.1783 45.3198 47.4663 45.3252 47.686 45.4807C47.8759 45.6149 47.9803 45.8407 48.0472 46.0635C48.4606 47.4349 47.7652 48.887 46.95 50.0626C46.4068 50.8472 45.7806 51.6047 44.9528 52.0767C44.1253 52.55 43.3477 52.8676 42.5096 52.4123C43.5555 52.5308 44.3907 52.615 44.4972 53.6636C44.5584 54.2665 44.1313 54.836 43.5955 55.1159C43.0598 55.3959 42.0707 56.5649 41.4667 56.5808C38.9547 56.6477 36.9913 57.9589 34.6185 57.1275L8.62559 37.0942Z" fill="#38B47B"/>
<path d="M36.4317 50.3612C36.5378 50.3935 37.2228 50.3008 37.3242 50.2538C38.3003 49.8035 39.3323 49.2985 39.8783 48.3713C40.1522 47.9061 40.2789 47.3718 40.4025 46.8465C40.4709 46.5545 40.5435 46.2465 40.4568 45.9604C40.1143 44.8251 39.0672 43.5937 38.7278 43.1344C38.7278 43.1344 38.2407 42.0146 35.2829 41.7176L36.4317 50.3612Z" fill="#EF4823"/>
<path d="M27.9381 29.578C27.9381 29.578 32.773 29.1706 34.4238 33.9904L31.5228 36.2471L26.9682 33.0093L27.9381 29.578Z" fill="#A37B57"/>
<path d="M31.7484 35.1704C31.5877 35.1565 31.5998 34.9147 31.6707 34.7695C32.2768 33.517 33.5607 32.5925 34.9485 32.5194C35.5984 32.4853 36.263 32.6338 36.8196 32.9729C37.6177 33.4586 38.1581 34.3243 38.3117 35.2473C38.4653 36.1703 37.8979 37.7761 37.9946 37.746C37.9946 37.746 36.9921 41.4439 34.9828 41.5365C32.9727 41.6286 31.7484 35.1704 31.7484 35.1704Z" fill="#EF4823"/>
<path d="M22.0708 30.0006C22.1146 29.5463 22.3942 29.1479 22.7188 28.8291C23.0434 28.5103 23.4222 28.2482 23.7421 27.9244C24.0261 27.6368 24.268 27.2976 24.6085 27.0812C25.0972 26.7707 25.7281 26.759 26.286 26.9163C26.8426 27.0739 27.3433 27.3826 27.8355 27.6892C28.1993 27.9153 28.5829 28.163 28.7608 28.5533C28.9995 29.0786 28.9482 30.0703 28.7431 30.6098C28.5772 31.044 27.6445 32.33 27.6747 32.3887L22.0708 30.0006Z" fill="#EF4823"/>
<path d="M35.3021 54.9244C36.1346 55.3292 37.1689 55.2834 37.9623 54.807C38.3132 54.5969 38.6129 54.3122 38.9087 54.0285C39.3111 53.6419 39.7181 53.2439 39.9828 52.7523C40.3218 52.1243 40.4026 51.3612 40.2037 50.6753C40.0048 49.9894 39.1115 48.7524 38.5449 48.3189C37.4657 47.4931 36.4128 46.4964 34.2531 46.2327L35.3021 54.9244Z" fill="#A37B57"/>
<path d="M20.0962 28.9364C20.0962 28.9364 16.6303 25.8528 14.6238 28.7397C12.6173 31.6265 15.8801 34.4435 15.8801 34.4435L20.0962 28.9364Z" fill="#EF4823"/>
<path d="M24.2138 30.746C24.1939 29.7638 23.8904 27.9987 23.0997 27.419C22.309 26.8394 21.3447 26.5451 20.3832 26.3552C20.1285 26.3053 19.8631 26.2622 19.6129 26.332C19.3819 26.3969 19.1895 26.5519 19.003 26.7027C18.5125 27.1017 17.998 27.5332 17.7936 28.1333C17.6529 28.5455 17.6758 28.9942 17.7002 29.4295C17.7266 29.9032 17.7387 30.3771 17.779 30.8493C17.8202 31.3276 18.2805 32.0904 18.3801 32.2116L24.2138 30.746Z" fill="#A37B57"/>
<path d="M34.7314 39.7133C34.6235 39.3609 34.9639 39.0429 35.2725 38.8433C36.1515 38.2733 37.1136 37.7993 38.1475 37.6362C39.1818 37.4723 40.2985 37.6455 41.1417 38.2666C41.985 38.8878 42.4962 39.9981 42.2603 41.0194C41.9945 42.1702 40.9195 42.9377 39.8589 43.454C39.5473 43.6059 39.2287 43.7458 38.8931 43.8307C37.7196 44.1281 36.4774 43.7208 35.4147 43.1399C35.4927 43.1717 35.5708 43.2034 35.6488 43.2352L34.7314 39.7133Z" fill="#A37B57"/>
<path d="M36.6873 31.0353C38.622 31.2813 40.404 32.1846 42.141 33.0739C42.7542 33.388 43.3705 33.7041 43.9172 34.1234C44.5176 34.5839 45.0191 35.1584 45.505 35.7388C47.6072 38.2469 49.5462 41.0248 50.2665 44.2191C51.2057 48.3857 49.9329 52.8044 47.7154 56.4513C47.7154 56.4513 45.3675 59.4961 40.377 55.8489C35.3864 52.2017 36.6873 31.0353 36.6873 31.0353Z" fill="#F58420"/>
<path d="M16.4221 43.1516C15.922 42.3441 15.4966 41.4505 15.47 40.5014C15.4425 39.5518 15.8978 38.5393 16.76 38.1427C17.6217 37.7469 18.8385 38.2164 19.0177 39.1494C19.0892 38.4911 19.1606 37.8327 19.232 37.1744C19.3381 36.1949 19.465 35.1625 20.0629 34.3814C20.6608 33.6003 21.9019 33.2246 22.6416 33.8729C22.9261 34.1221 23.1505 34.5131 23.5284 34.5378C23.8001 33.7293 24.2843 32.9922 24.5553 32.1832C24.8074 31.4328 25.2299 30.5459 26.0184 30.508C26.3285 30.493 26.6281 30.6245 26.8992 30.776C28.0187 31.4021 28.6906 32.3667 29.1336 33.5725C30 32.4715 30.5297 31.1117 31.5262 30.1263C32.5227 29.141 34.3031 28.6885 35.2689 29.7049C35.7913 30.2537 35.9193 31.0903 35.7803 31.8357C35.6413 32.5812 35.2707 33.2601 34.8989 33.9208C35.8121 32.1914 38.1048 31.3455 39.9211 32.0684C40.4394 32.2751 40.9552 32.6496 41.0634 33.1978C41.1357 33.5659 41.0108 33.9428 40.8652 34.2888C40.3949 35.408 39.6929 36.4278 38.8156 37.2655C40.1658 36.3307 41.7888 35.7986 43.4301 35.7539C43.9258 35.7405 44.4441 35.7766 44.8707 36.0307C45.9026 36.6465 45.8839 38.1398 45.6222 39.3148C45.3823 40.3917 44.8416 41.6334 43.7514 41.7832C44.9217 41.1004 46.1073 40.4105 47.4113 40.0411C48.7148 39.6725 50.1697 39.653 51.3712 40.2805C51.538 40.368 51.7066 40.4741 51.7973 40.6391C51.9049 40.834 51.8856 41.0715 51.8483 41.2916C51.5313 43.1872 50.0451 44.8353 48.1954 45.3432C49.4714 45.7851 50.9507 45.3707 52.1779 45.9339C53.4908 46.5357 54.1218 48.2514 53.613 49.6053C53.1043 50.9591 51.6024 51.8232 50.1642 51.6987C51.7732 51.6116 53.0946 51.3893 54.7064 51.3792C54.9748 51.3772 55.2628 51.3827 55.4825 51.5381C55.6724 51.6724 55.7768 51.8981 55.8437 52.1209C56.2571 53.4923 55.5617 54.9445 54.7465 56.1201C54.2033 56.9047 53.5771 57.6622 52.7493 58.1342C51.9219 58.6075 51.1442 58.9251 50.3061 58.4698C51.352 58.5882 52.1872 58.6724 52.2937 59.7211C52.3549 60.324 51.9278 60.8934 51.392 61.1734C50.8563 61.4533 49.8673 62.6224 49.2632 62.6383C46.7512 62.7051 44.7878 64.0163 42.415 63.1849L16.4221 43.1516Z" fill="#7CB56B"/>
<path d="M44.2282 56.4186C44.3343 56.4509 45.0193 56.3582 45.1207 56.3112C46.0968 55.861 47.1289 55.3559 47.6748 54.4287C47.9487 53.9635 48.0755 53.4292 48.199 52.9039C48.2674 52.6119 48.34 52.3039 48.2533 52.0178C47.9109 50.8826 46.8637 49.6511 46.5243 49.1918C46.5243 49.1918 46.0372 48.072 43.0795 47.775L44.2282 56.4186Z" fill="#EF4823"/>
<path d="M35.7346 35.6354C35.7346 35.6354 40.5695 35.2281 42.2203 40.0479L39.3193 42.3045L34.7646 39.0667L35.7346 35.6354Z" fill="#A37B57"/>
<path d="M39.5446 41.2279C39.3838 41.214 39.396 40.9722 39.4668 40.827C40.0729 39.5744 41.3568 38.6499 42.7446 38.5769C43.3945 38.5428 44.0591 38.6912 44.6158 39.0303C45.4138 39.516 45.9542 40.3817 46.1078 41.3047C46.2614 42.2277 45.694 43.8336 45.7907 43.8034C45.7907 43.8034 44.7883 47.5013 42.779 47.5939C40.7689 47.686 39.5446 41.2279 39.5446 41.2279Z" fill="#EF4823"/>
<path d="M29.867 36.0581C29.9108 35.6038 30.1904 35.2054 30.515 34.8866C30.8395 34.5678 31.2184 34.3057 31.5383 33.9819C31.8223 33.6943 32.0642 33.3551 32.4046 33.1387C32.8933 32.8282 33.5243 32.8165 34.0821 32.9738C34.6387 33.1314 35.1395 33.4401 35.6316 33.7467C35.9955 33.9728 36.379 34.2205 36.5569 34.6108C36.7956 35.1361 36.7443 36.1278 36.5392 36.6673C36.3733 37.1015 35.4406 38.3875 35.4708 38.4462L29.867 36.0581Z" fill="#EF4823"/>
<path d="M43.0987 60.9818C43.9311 61.3866 44.9655 61.3408 45.7588 60.8644C46.1097 60.6543 46.4094 60.3696 46.7052 60.0859C47.1076 59.6993 47.5146 59.3013 47.7793 58.8097C48.1183 58.1817 48.1992 57.4187 48.0002 56.7327C47.8013 56.0468 46.908 54.8098 46.3415 54.3763C45.2623 53.5505 44.2093 52.5538 42.0496 52.2902L43.0987 60.9818Z" fill="#A37B57"/>
<path d="M27.8927 34.9939C27.8927 34.9939 24.4268 31.9102 22.4203 34.7971C20.4138 37.684 23.6766 40.501 23.6766 40.501L27.8927 34.9939Z" fill="#EF4823"/>
<path d="M32.0102 36.8034C31.9903 35.8212 31.6869 34.0561 30.8961 33.4765C30.1054 32.8968 29.1412 32.6026 28.1796 32.4126C27.9249 32.3628 27.6595 32.3196 27.4093 32.3894C27.1783 32.4544 26.986 32.6093 26.7994 32.7601C26.3089 33.1591 25.7944 33.5907 25.5901 34.1907C25.4494 34.603 25.4723 35.0516 25.4966 35.4869C25.523 35.9607 25.5351 36.4345 25.5755 36.9068C25.6166 37.385 26.0769 38.1478 26.1765 38.269L32.0102 36.8034Z" fill="#A37B57"/>
<path d="M42.5279 45.7708C42.42 45.4183 42.7604 45.1003 43.069 44.9007C43.948 44.3307 44.9101 43.8567 45.944 43.6936C46.9783 43.5298 48.095 43.7029 48.9382 44.3241C49.7815 44.9452 50.2927 46.0556 50.0568 47.0769C49.7911 48.2277 48.716 48.9952 47.6554 49.5114C47.3439 49.6633 47.0253 49.8033 46.6896 49.8881C45.5161 50.1855 44.2739 49.7782 43.2112 49.1974C43.2893 49.2291 43.3673 49.2609 43.4453 49.2926L42.5279 45.7708Z" fill="#A37B57"/>
<path d="M71.1161 52.8583C72.2619 54.7845 69.9558 57.4321 68.188 59.5817C65.315 63.0752 60.9898 66.3384 57.491 68.2268C51.8394 71.277 45.5 72.8415 39.0722 72.7725C18.2439 72.7725 1.35185 56.4376 1.35185 36.2968C1.40157 27.94 4.32364 19.8521 9.63174 13.3793C12.7353 9.59473 19.2649 4.72803 24.2671 2.1161C27.8203 0.260804 30.7291 -0.28032 30.5264 0.720693C26.0593 6.72084 23.6796 14.0084 23.7485 21.4774C23.7485 40.993 40.1096 56.8142 60.2902 56.8142C63.1303 56.8617 69.7023 55.9106 71.1161 52.8583Z" fill="#FFC107"/>
<path d="M14.9837 17.7527C14.7146 17.7527 14.4566 17.862 14.2663 18.0565C14.076 18.251 13.9691 18.5148 13.9691 18.7899C13.9691 19.065 14.076 19.3289 14.2663 19.5234C14.4566 19.7179 14.7146 19.8272 14.9837 19.8272C15.2528 19.8272 15.5108 19.7179 15.7011 19.5234C15.8914 19.3289 15.9983 19.065 15.9983 18.7899C15.9983 18.5148 15.8914 18.251 15.7011 18.0565C15.5108 17.862 15.2528 17.7527 14.9837 17.7527ZM17.0098 14.6451C16.741 14.6451 16.4832 14.7543 16.2931 14.9486C16.103 15.1429 15.9962 15.4065 15.9962 15.6813C15.9962 15.9561 16.103 16.2197 16.2931 16.414C16.4832 16.6083 16.741 16.7175 17.0098 16.7175C17.2786 16.7175 17.5364 16.6083 17.7265 16.414C17.9166 16.2197 18.0233 15.9561 18.0233 15.6813C18.0233 15.4065 17.9166 15.1429 17.7265 14.9486C17.5364 14.7543 17.2786 14.6451 17.0098 14.6451ZM19.0379 17.7527C18.7688 17.7527 18.5108 17.862 18.3205 18.0565C18.1302 18.251 18.0233 18.5148 18.0233 18.7899C18.0233 19.065 18.1302 19.3289 18.3205 19.5234C18.5108 19.7179 18.7688 19.8272 19.0379 19.8272C19.307 19.8272 19.565 19.7179 19.7553 19.5234C19.9456 19.3289 20.0525 19.065 20.0525 18.7899C20.0525 18.5148 19.9456 18.251 19.7553 18.0565C19.565 17.862 19.307 17.7527 19.0379 17.7527Z" fill="#F57C00"/>
<path d="M49.9113 21.5269C50.0341 21.5016 50.1545 21.5807 50.1799 21.7034C50.5886 23.6783 49.3144 25.6176 47.3395 26.0264C45.3647 26.4352 43.4253 25.161 43.0166 23.1861C42.9911 23.0633 43.0701 22.943 43.193 22.9176L49.9113 21.5269Z" fill="#F96300"/>
<path d="M31.116 17.9948C32 18.5756 33.1874 18.3298 33.7682 17.4459C34.349 16.5619 34.1032 15.3745 33.2192 14.7937C32.3353 14.2129 31.1479 14.4587 30.5671 15.3426C29.9863 16.2266 30.2321 17.414 31.116 17.9948Z" fill="#61D16B"/>
<path d="M49.1502 32.8092C49.8262 33.2534 50.7342 33.0654 51.1783 32.3894C51.6225 31.7135 51.4345 30.8054 50.7585 30.3613C50.0826 29.9172 49.1745 30.1051 48.7304 30.7811C48.2863 31.4571 48.4742 32.3651 49.1502 32.8092Z" fill="#FFEA33"/>
<path d="M44.108 17.0953C44.992 17.6761 46.1794 17.4303 46.7602 16.5464C47.341 15.6624 47.0952 14.475 46.2112 13.8942C45.3273 13.3134 44.1398 13.5592 43.5591 14.4432C42.9783 15.3271 43.224 16.5145 44.108 17.0953Z" fill="#C14616"/>
</svg>
