<svg width="943" height="415" viewBox="0 0 943 415" fill="none" xmlns="http://www.w3.org/2000/svg">
<ellipse cx="471.5" cy="336" rx="471.5" ry="79" fill="#C4C4C4"/>
<path d="M470.082 1.6C468.782 2.9 468.482 6 468.482 20.4C468.482 35.9 468.682 37.9 470.282 39.3C472.682 41.5 475.782 41.4 477.782 39.2C479.182 37.6 479.482 34.8 479.482 20.2C479.482 1.7 478.982 -3.66123e-06 473.982 -3.66123e-06C472.682 -3.66123e-06 470.882 0.699996 470.082 1.6Z" fill="#F33A3A"/>
<path d="M329.082 60.2C328.182 61.4 327.482 63.1 327.482 63.9C327.482 64.7 332.982 70.9 339.682 77.7C350.182 88.3 352.282 90 355.082 90C358.382 90 359.482 88.7 359.482 84.7C359.482 81.6 335.782 58 332.782 58C331.582 58 329.882 59 329.082 60.2Z" fill="#F33A3A"/>
<path d="M600.682 70.3C588.282 82.7 586.582 85.7 589.682 88.8C592.882 92 595.882 90.2 608.282 77.7C614.982 70.9 620.482 64.7 620.482 63.9C620.482 61.4 617.482 58 615.182 58C613.682 58 608.982 62 600.682 70.3Z" fill="#F33A3A"/>
<rect x="441" y="152" width="65" height="130" fill="white"/>
<path d="M459.482 67C446.782 69 441.782 70.1 434.082 72.6C400.682 83.3 373.782 106.1 358.482 136.8C353.282 147.4 350.782 154.2 347.682 166.4C345.282 176.4 345.182 177.1 344.782 229.2L344.282 282H403.382H462.482V246.6V211.1L459.582 208.8C450.482 201.5 449.982 185 458.682 177.4C464.082 172.6 466.782 171.6 473.982 171.6C481.182 171.6 483.882 172.6 489.282 177.4C497.982 185 497.482 201.5 488.382 208.8L485.482 211.1V246.6V282H542.982H600.482V237.2C600.482 190.4 599.682 175.4 596.482 163.3C583.582 114.1 544.082 77.1 495.182 68.5C485.082 66.7 466.482 65.9 459.482 67Z" fill="#F33A3A"/>
<path d="M600.482 282H572C572 282 581.5 186.5 548.5 127.5C510.5 73.5 459.482 67 459.482 67C466.482 65.9 485.082 66.7 495.182 68.5C544.082 77.1 583.582 114.1 596.482 163.3C599.682 175.4 600.482 190.4 600.482 237.2V282Z" fill="black" fill-opacity="0.2"/>
<path d="M271.882 199.8C271.282 200.2 270.282 201.5 269.582 202.8C268.582 204.7 268.782 205.4 270.882 207.5C273.382 210 273.682 210 289.182 210C306.582 210 309.782 209.2 310.282 204.9C310.882 199.6 308.982 199 290.182 199C280.682 199 272.482 199.4 271.882 199.8Z" fill="#F33A3A"/>
<path d="M638.982 200.6C636.682 202.9 637.482 207.2 640.482 208.7C642.182 209.6 648.082 210 658.782 210C674.282 210 674.582 210 677.082 207.5C679.182 205.4 679.382 204.7 678.382 202.8C677.682 201.5 676.682 200.2 676.082 199.8C675.482 199.4 667.282 199 657.782 199C643.282 199 640.382 199.2 638.982 200.6Z" fill="#F33A3A"/>
<path d="M459 185.804C463 188.113 463 193.887 459 196.196L397.5 231.703C393.5 234.013 388.5 231.126 388.5 226.507L388.5 155.493C388.5 150.874 393.5 147.987 397.5 150.297L459 185.804Z" fill="#E1EFFB" fill-opacity="0.15"/>
<path d="M487 196.196C483 193.887 483 188.113 487 185.804L548.5 150.297C552.5 147.987 557.5 150.874 557.5 155.493L557.5 226.507C557.5 231.126 552.5 234.013 548.5 231.703L487 196.196Z" fill="#E1EFFB" fill-opacity="0.15"/>
<rect x="328.482" y="282" width="287" height="75" rx="7" fill="#61AFF6"/>
<rect x="328.482" y="282" width="287" height="75" rx="7" fill="#61AFF6"/>
<path d="M588.482 282H615.482V357H601.982H588.482V282Z" fill="#55A2F0"/>
<path d="M328.562 347H600.482V357H464.522H336.361C336.361 357 331.561 357 329.562 354.857C328.062 352.714 328.562 351.643 328.562 347Z" fill="#55A2F0"/>
<rect x="312.482" y="301" width="320" height="35" rx="7" fill="#7BC7FF"/>
<path d="M588.482 308C588.482 304.134 591.616 301 595.482 301H625.482C629.348 301 632.482 304.134 632.482 308V329C632.482 332.866 629.348 336 625.482 336H595.482C591.616 336 588.482 332.866 588.482 329V318.5V308Z" fill="#61AFF6"/>
<rect x="436.482" y="301" width="166" height="35" rx="7" fill="#7BC7FF"/>
</svg>
