<svg width="943" height="294" viewBox="0 0 943 294" fill="none" xmlns="http://www.w3.org/2000/svg">
<ellipse cx="471.5" cy="174" rx="471.5" ry="79" fill="#C4C4C4"/>
<path d="M536.968 100.651C534.157 98.1947 531.541 95.4848 530.402 92.6331C529.259 89.7798 529.909 86.7683 532.801 85.6313C535.691 84.4966 540.897 85.9828 542.607 88.7956C542.163 86.8232 541.72 84.8508 541.276 82.8783C540.615 79.9439 539.978 76.8519 541.43 74.5437C542.883 72.2356 547.259 71.1854 550.819 73.1784C552.188 73.9444 553.481 75.1326 554.965 75.2304C555.13 72.8198 556.192 70.6365 556.354 68.2244C556.507 65.9869 557.167 63.3501 560.167 63.2857C561.346 63.2599 562.645 63.6736 563.856 64.1456C568.857 66.0957 572.501 69.0344 575.527 72.6828C577.665 69.4309 578.223 65.381 580.99 62.4846C583.757 59.5881 590.128 58.341 594.963 61.4533C597.576 63.1342 598.984 65.6543 599.262 67.8839C599.54 70.1136 598.852 72.129 598.14 74.0899C599.773 68.954 607.691 66.5573 615.484 68.8419C617.709 69.495 620.107 70.6518 621.123 72.3046C621.804 73.4146 621.733 74.5387 621.55 75.5683C620.958 78.8995 619.365 81.9181 616.897 84.3785C621.082 81.6559 626.76 80.1599 633.041 80.1285C634.938 80.1191 636.976 80.2601 638.899 81.0498C643.55 82.9636 645.109 87.4463 645.383 90.9584C645.634 94.1768 644.905 97.8716 640.864 98.2532C644.632 96.2763 648.45 94.2788 653.075 93.2512C657.7 92.226 663.289 92.2586 668.608 94.2182C669.346 94.4912 670.112 94.8203 670.642 95.3216C671.27 95.9137 671.455 96.6255 671.552 97.284C672.399 102.956 668.468 107.812 661.889 109.222C667.293 110.628 672.545 109.477 677.892 111.244C683.613 113.134 687.919 118.325 687.436 122.359C686.952 126.392 682.105 128.893 676.422 128.429C682.532 128.268 687.385 127.683 693.59 127.754C694.623 127.765 695.739 127.799 696.756 128.28C697.635 128.695 698.284 129.379 698.786 130.052C701.877 134.196 700.781 138.513 698.922 141.992C697.684 144.314 696.096 146.55 693.419 147.915C690.745 149.284 688.093 150.19 684.364 148.77C688.527 149.191 691.839 149.496 693.395 152.652C694.289 154.466 693.264 156.149 691.504 156.956C689.744 157.763 687.206 161.212 684.894 161.222C675.28 161.265 669.141 165.079 659.082 162.434L536.968 100.651Z" fill="#38B47B"/>
<path d="M701.331 136.136C704.109 138.629 706.69 141.372 707.792 144.237C708.898 147.104 708.209 150.106 705.303 151.204C702.398 152.299 697.213 150.744 695.539 147.91C695.957 149.887 696.375 151.865 696.793 153.842C697.415 156.784 698.013 159.883 696.531 162.17C695.049 164.458 690.659 165.449 687.126 163.41C685.766 162.626 684.49 161.421 683.007 161.303C682.811 163.71 681.72 165.878 681.528 168.287C681.346 170.521 680.651 173.148 677.651 173.172C676.472 173.182 675.178 172.752 673.974 172.264C668.999 170.248 665.393 167.262 662.416 163.575C660.235 166.797 659.625 170.837 656.821 173.695C654.017 176.553 647.63 177.715 642.837 174.539C640.246 172.824 638.871 170.287 638.622 168.055C638.373 165.822 639.087 163.817 639.824 161.867C638.125 166.978 630.178 169.268 622.415 166.881C620.199 166.198 617.817 165.01 616.822 163.345C616.156 162.226 616.241 161.103 616.438 160.077C617.072 156.755 618.705 153.76 621.204 151.333C616.984 153.999 611.287 155.418 605.007 155.366C603.111 155.35 601.075 155.182 599.163 154.367C594.537 152.392 593.036 147.891 592.808 144.377C592.599 141.157 593.376 137.473 597.421 137.146C593.628 139.072 589.784 141.017 585.147 141.982C580.51 142.945 574.922 142.838 569.629 140.809C568.895 140.526 568.133 140.187 567.609 139.679C566.989 139.078 566.814 138.365 566.726 137.705C565.952 132.025 569.946 127.224 576.541 125.903C571.157 124.425 565.891 125.506 560.567 123.667C554.872 121.703 550.634 116.456 551.17 112.431C551.705 108.407 556.585 105.972 562.26 106.511C556.149 106.591 551.289 107.11 545.087 106.957C544.054 106.932 542.938 106.883 541.928 106.389C541.054 105.963 540.414 105.27 539.922 104.59C536.884 100.407 538.036 96.1072 539.94 92.6548C541.208 90.3506 542.825 88.1376 545.519 86.8086C548.21 85.4756 550.874 84.6065 554.584 86.0751C550.427 85.5986 547.119 85.2494 545.604 82.0747C544.734 80.2496 545.781 78.5809 547.551 77.7978C549.322 77.0146 551.903 73.6017 554.215 73.6228C563.828 73.7076 570.016 69.9773 580.039 72.7553L701.331 136.136Z" fill="#38B47B"/>
<path d="M213.546 172.839C209.822 172.594 206.098 172.03 203.461 170.456C200.82 168.883 199.508 166.095 201.115 163.436C202.723 160.779 207.761 158.799 210.828 159.996C209.278 158.698 207.728 157.4 206.178 156.102C203.871 154.172 201.487 152.102 201.24 149.386C200.992 146.67 203.831 143.179 207.87 142.6C209.424 142.378 211.172 142.537 212.41 141.714C211.078 139.698 210.596 137.318 209.26 135.304C208.023 133.433 206.946 130.937 209.291 129.064C210.212 128.328 211.495 127.868 212.744 127.507C217.902 126.02 222.582 126.142 227.201 127.204C226.925 123.322 224.909 119.765 225.349 115.784C225.788 111.803 230.094 106.943 235.825 106.48C238.922 106.229 241.571 107.376 243.145 108.979C244.72 110.582 245.397 112.601 246.022 114.591C244.201 109.519 249.037 102.807 256.616 99.8899C258.78 99.0579 261.388 98.521 263.199 99.2174C264.414 99.6858 265.041 100.622 265.52 101.551C267.073 104.557 267.64 107.923 267.173 111.377C268.845 106.672 272.448 102.035 277.419 98.1968C278.921 97.0375 280.626 95.9121 282.633 95.372C287.491 94.0681 291.451 96.6833 293.801 99.3075C295.955 101.712 297.619 105.091 294.64 107.847C296.434 103.989 298.255 100.083 301.306 96.4582C304.357 92.8358 308.818 89.4679 314.234 87.7952C314.987 87.5637 315.795 87.36 316.521 87.4365C317.379 87.5256 317.958 87.979 318.435 88.4435C322.552 92.4358 322.377 98.6813 318.006 103.795C323.153 101.632 326.627 97.5279 331.949 95.6857C337.642 93.7134 344.216 95.2231 346.281 98.7214C348.346 102.22 346.013 107.15 341.216 110.232C345.973 106.394 349.474 102.983 354.446 99.2716C355.274 98.653 356.182 98.0024 357.282 97.7667C358.232 97.5626 359.163 97.7123 359.97 97.9428C364.943 99.358 366.694 103.453 367.329 107.347C367.755 109.943 367.851 112.684 366.553 115.394C365.26 118.106 363.702 120.435 359.877 121.572C363.44 119.379 366.258 117.61 369.41 119.172C371.222 120.07 371.43 122.03 370.521 123.74C369.613 125.451 369.691 129.731 367.86 131.143C360.247 137.015 357.685 143.774 348.087 147.78L213.546 172.839Z" fill="#38B47B"/>
<path d="M365.688 101.231C369.408 101.525 373.125 102.137 375.74 103.745C378.359 105.351 379.634 108.155 377.992 110.791C376.349 113.426 371.285 115.339 368.235 114.103C369.767 115.42 371.3 116.737 372.833 118.055C375.113 120.014 377.47 122.114 377.681 124.831C377.893 127.549 375.007 131.001 370.961 131.527C369.405 131.729 367.659 131.547 366.41 132.354C367.715 134.386 368.165 136.77 369.475 138.801C370.687 140.687 371.73 143.196 369.361 145.037C368.43 145.761 367.141 146.204 365.887 146.548C360.711 147.967 356.033 147.784 351.429 146.662C351.652 150.546 353.621 154.127 353.128 158.1C352.636 162.074 348.267 166.875 342.53 167.262C339.43 167.473 336.797 166.292 335.243 164.669C333.69 163.047 333.04 161.02 332.441 159.023C334.195 164.116 329.271 170.761 321.653 173.578C319.478 174.381 316.864 174.884 315.063 174.164C313.854 173.68 313.24 172.737 312.773 171.801C311.26 168.777 310.738 165.405 311.251 161.96C309.516 166.64 305.852 171.227 300.83 174.998C299.314 176.138 297.594 177.24 295.58 177.754C290.705 178.994 286.78 176.328 284.465 173.675C282.343 171.243 280.724 167.845 283.739 165.129C281.895 168.962 280.022 172.842 276.924 176.425C273.824 180.005 269.319 183.313 263.882 184.914C263.126 185.136 262.315 185.329 261.591 185.243C260.734 185.143 260.161 184.682 259.69 184.211C255.626 180.168 255.884 173.928 260.323 168.874C255.147 170.969 251.619 175.025 246.273 176.797C240.555 178.694 234.002 177.1 231.984 173.576C229.965 170.053 232.364 165.156 237.201 162.138C232.394 165.912 228.848 169.276 223.827 172.92C222.991 173.528 222.075 174.166 220.972 174.387C220.019 174.579 219.09 174.417 218.286 174.176C213.332 172.697 211.636 168.581 211.053 164.681C210.661 162.081 210.602 159.341 211.936 156.649C213.265 153.956 214.853 151.648 218.693 150.562C215.101 152.707 212.26 154.438 209.129 152.836C207.329 151.914 207.148 149.953 208.079 148.256C209.01 146.558 208.989 142.279 210.839 140.892C218.528 135.122 221.18 128.401 230.83 124.522L365.688 101.231Z" fill="#38B47B"/>
<path d="M213.546 172.839C209.822 172.594 206.098 172.03 203.461 170.456C200.82 168.883 199.508 166.095 201.115 163.436C202.723 160.779 207.761 158.799 210.828 159.996C209.278 158.698 207.728 157.4 206.178 156.102C203.871 154.172 201.487 152.102 201.24 149.386C200.992 146.67 203.831 143.179 207.87 142.6C209.424 142.378 211.172 142.537 212.41 141.714C211.078 139.698 210.596 137.318 209.26 135.304C208.023 133.433 206.946 130.937 209.291 129.064C210.212 128.328 211.495 127.868 212.744 127.507C217.902 126.02 222.582 126.142 227.201 127.204C226.925 123.322 224.909 119.765 225.349 115.784C225.788 111.803 230.094 106.943 235.825 106.48C238.922 106.229 241.571 107.376 243.145 108.979C244.72 110.582 245.397 112.601 246.022 114.591C244.201 109.519 249.037 102.807 256.616 99.8899C258.78 99.0579 261.388 98.521 263.199 99.2174C264.414 99.6858 265.041 100.622 265.52 101.551C267.073 104.557 267.64 107.923 267.173 111.377C268.845 106.672 272.448 102.035 277.419 98.1968C278.921 97.0375 280.626 95.9121 282.633 95.372C287.491 94.0681 291.451 96.6833 293.801 99.3075C295.955 101.712 297.619 105.091 294.64 107.847C296.434 103.989 298.255 100.083 301.306 96.4582C304.357 92.8358 308.818 89.4679 314.234 87.7952C314.987 87.5637 315.795 87.36 316.521 87.4365C317.379 87.5256 317.958 87.979 318.435 88.4435C322.552 92.4358 322.377 98.6813 318.006 103.795C323.153 101.632 326.627 97.5279 331.949 95.6857C337.642 93.7134 344.216 95.2231 346.281 98.7214C348.346 102.22 346.013 107.15 341.216 110.232C345.973 106.394 349.474 102.983 354.446 99.2716C355.274 98.653 356.182 98.0024 357.282 97.7667C358.232 97.5626 359.163 97.7123 359.97 97.9428C364.943 99.358 366.694 103.453 367.329 107.347C367.755 109.943 367.851 112.684 366.553 115.394C365.26 118.106 363.702 120.435 359.877 121.572C363.44 119.379 366.258 117.61 369.41 119.172C371.222 120.07 371.43 122.03 370.521 123.74C369.613 125.451 369.691 129.731 367.86 131.143C360.247 137.015 357.685 143.774 348.087 147.78L213.546 172.839Z" fill="#38B47B"/>
<path d="M365.688 101.231C369.408 101.525 373.125 102.137 375.74 103.745C378.359 105.351 379.634 108.155 377.992 110.791C376.349 113.426 371.285 115.339 368.235 114.103C369.767 115.42 371.3 116.737 372.833 118.055C375.113 120.014 377.47 122.114 377.681 124.831C377.893 127.549 375.007 131.001 370.961 131.527C369.405 131.729 367.659 131.547 366.41 132.354C367.715 134.386 368.165 136.77 369.475 138.801C370.687 140.687 371.73 143.196 369.361 145.037C368.43 145.761 367.141 146.204 365.887 146.548C360.711 147.967 356.033 147.784 351.429 146.662C351.652 150.546 353.621 154.127 353.128 158.1C352.636 162.074 348.267 166.875 342.53 167.262C339.43 167.473 336.797 166.292 335.243 164.669C333.69 163.047 333.04 161.02 332.441 159.023C334.195 164.116 329.271 170.761 321.653 173.578C319.478 174.381 316.864 174.884 315.063 174.164C313.854 173.68 313.24 172.737 312.773 171.801C311.26 168.777 310.738 165.405 311.251 161.96C309.516 166.64 305.852 171.227 300.83 174.998C299.314 176.138 297.594 177.24 295.58 177.754C290.705 178.994 286.78 176.328 284.465 173.675C282.343 171.243 280.724 167.845 283.739 165.129C281.895 168.962 280.022 172.842 276.924 176.425C273.824 180.005 269.319 183.313 263.882 184.914C263.126 185.136 262.315 185.329 261.591 185.243C260.734 185.143 260.161 184.682 259.69 184.211C255.626 180.168 255.884 173.928 260.323 168.874C255.147 170.969 251.619 175.025 246.273 176.797C240.555 178.694 234.002 177.1 231.984 173.576C229.965 170.053 232.364 165.156 237.201 162.138C232.394 165.912 228.848 169.276 223.827 172.92C222.991 173.528 222.075 174.166 220.972 174.387C220.019 174.579 219.09 174.417 218.286 174.176C213.332 172.697 211.636 168.581 211.053 164.681C210.661 162.081 210.602 159.341 211.936 156.649C213.265 153.956 214.853 151.648 218.693 150.562C215.101 152.707 212.26 154.438 209.129 152.836C207.329 151.914 207.148 149.953 208.079 148.256C209.01 146.558 208.989 142.279 210.839 140.892C218.528 135.122 221.18 128.401 230.83 124.522L365.688 101.231Z" fill="#38B47B"/>
<path d="M518.591 235.17C515.909 235.67 513.159 234.723 510.791 233.386C508.423 232.05 506.291 230.308 503.902 229.006C501.781 227.851 499.433 227.023 497.627 225.425C495.035 223.132 493.924 219.528 493.905 216.064C493.889 212.607 494.833 209.221 495.781 205.887C496.477 203.423 497.265 200.811 499.212 199.143C501.834 196.904 507.614 195.558 511.052 195.843C513.82 196.078 522.749 199.307 523.036 199.036L518.591 235.17Z" fill="#EF4823"/>
<path d="M387.281 234.143C387.281 234.143 376.943 207.05 401.893 189.596L419.652 202.524L408.591 234.037L387.281 234.143Z" fill="#A37B57"/>
<path d="M604.899 248.117C605.085 249.063 603.676 249.393 602.725 249.227C594.529 247.818 587.096 241.973 584.381 234.124C583.11 230.448 582.863 226.386 583.889 222.628C585.359 217.241 589.437 212.706 594.483 210.297C599.53 207.888 609.691 208.49 609.358 207.985C609.358 207.985 632.253 207.625 636.109 219.011C639.963 230.403 604.899 248.117 604.899 248.117Z" fill="#EF4823"/>
<path d="M537.715 47.345C537.901 48.2911 536.492 48.6214 535.541 48.4547C527.345 47.0459 519.912 41.2016 517.197 33.3524C515.926 29.6764 515.679 25.614 516.706 21.8561C518.175 16.4695 522.253 11.9341 527.3 9.52504C532.346 7.11602 542.507 7.7181 542.174 7.21285C542.174 7.21285 565.07 6.85283 568.925 18.2391C572.779 29.6308 537.715 47.345 537.715 47.345Z" fill="#EF4823"/>
<path d="M488.839 69.6466C484.119 47.1203 452.181 30.8394 498.638 47.6714C520.131 63.5037 510.712 68.9463 507.391 70.5629C494.803 76.6989 500.693 78.0155 492.923 90.1257C493.389 90.3155 493.856 90.5053 494.322 90.6951L488.839 69.6466Z" fill="#FFC107"/>
<path d="M514.934 263.638C492.985 269.799 480.293 250.693 516.954 283.836C540.958 295.487 533.265 288.843 533.113 285.183C532.544 271.306 523.765 283.969 530.701 271.594C531.087 271.917 531.473 272.24 531.86 272.563L514.934 263.638Z" fill="#FFC107"/>
<path d="M521.675 142.769C542.052 153.468 550.377 145.497 507.823 170.611C481.932 177.109 510.945 160.907 511.812 157.317C515.093 143.703 507.675 146.583 503.281 132.882C502.838 133.121 502.395 133.36 501.952 133.598L521.675 142.769Z" fill="#FFC107"/>
<path d="M461.908 224.501C457.188 201.975 425.25 185.694 471.707 202.526C493.2 218.358 483.781 223.801 480.46 225.417C467.872 231.553 473.762 232.87 465.992 244.98C466.458 245.17 466.924 245.36 467.391 245.549L461.908 224.501Z" fill="#FFC107"/>
<path d="M390.383 112.868C385.663 90.3418 374.217 88.9952 420.674 105.827C442.166 121.66 411.202 109.597 407.881 111.214C395.293 117.349 402.237 121.237 394.467 133.347C394.933 133.537 395.4 133.727 395.866 133.917L390.383 112.868Z" fill="#FFC107"/>
<path d="M411.249 246.133C389.3 252.294 376.608 233.187 413.268 266.331C437.272 277.982 429.58 271.338 429.428 267.678C428.859 253.801 420.08 266.464 427.016 254.089C427.402 254.412 427.788 254.735 428.174 255.058L411.249 246.133Z" fill="#FFC107"/>
<path d="M411.068 74.4721C406.348 51.9459 396.929 16.3939 443.385 33.2259C464.878 49.0582 433.914 36.9955 430.593 38.6122C418.005 44.7481 424.948 48.6356 417.179 60.7458C417.645 60.9356 418.111 61.1254 418.577 61.3152L411.068 74.4721Z" fill="#FFC107"/>
<path d="M367.996 88.8741C374.871 87.9003 380.446 90.3094 385.87 92.7005C387.785 93.5454 389.709 94.3962 391.26 95.8299C392.964 97.4042 394.174 99.6468 395.32 101.936C400.282 111.823 404.339 123.212 403.426 138.005C402.233 157.301 392.582 180.316 380.305 200.622C380.305 200.622 368.218 218.135 353.856 205.93C339.494 193.726 367.996 88.8741 367.996 88.8741Z" fill="#F58420"/>
<path d="M272.304 110.68C272.566 107.964 274.237 105.583 276.177 103.678C278.117 101.772 280.381 100.206 282.293 98.2709C283.99 96.5521 285.436 94.5249 287.471 93.2318C290.391 91.3758 294.162 91.3062 297.496 92.2463C300.822 93.1883 303.815 95.0327 306.757 96.8656C308.931 98.2164 311.224 99.697 312.287 102.03C313.713 105.169 313.407 111.096 312.181 114.32C311.19 116.915 305.615 124.601 305.796 124.952L272.304 110.68Z" fill="#EF4823"/>
<path d="M599.903 43.5797C599.903 43.5797 628.798 41.1453 638.665 69.9508L621.327 83.4378L594.106 64.0869L599.903 43.5797Z" fill="#A37B57"/>
<path d="M401.011 133.024C400.051 132.941 400.123 131.496 400.547 130.628C404.169 123.143 411.842 117.617 420.137 117.181C424.021 116.977 427.993 117.864 431.32 119.891C436.089 122.793 439.319 127.967 440.237 133.484C441.155 139 437.764 148.597 438.342 148.417C438.342 148.417 432.35 170.518 420.342 171.071C408.329 171.621 401.011 133.024 401.011 133.024Z" fill="#EF4823"/>
<path d="M255.344 121.881C255.225 116.011 253.412 105.462 248.686 101.998C243.96 98.5334 238.197 96.7746 232.451 95.6396C230.928 95.3416 229.343 95.0837 227.847 95.5006C226.466 95.889 225.317 96.815 224.202 97.7162C221.27 100.101 218.196 102.68 216.974 106.266C216.133 108.73 216.27 111.411 216.416 114.013C216.573 116.844 216.646 119.676 216.887 122.499C217.133 125.357 219.884 129.916 220.479 130.64L255.344 121.881Z" fill="#A37B57"/>
<path d="M640.505 104.154C639.859 102.047 641.894 100.147 643.738 98.9539C648.992 95.5472 654.742 92.7142 660.921 91.7397C667.102 90.7604 673.776 91.7952 678.816 95.5075C683.855 99.2198 686.911 105.856 685.501 111.959C683.913 118.837 677.487 123.424 671.149 126.51C669.287 127.417 667.383 128.254 665.377 128.761C658.364 130.539 650.94 128.104 644.588 124.633C645.055 124.822 645.521 125.012 645.987 125.202L640.505 104.154Z" fill="#A37B57"/>
<path d="M593.964 92.0043C586.369 83.5673 561.457 66.5429 549.082 55.5519C558.504 119.129 589.348 121.588 536.524 83.5513C540.218 110.927 543.989 144.742 494.172 102.971C516.88 151.525 516.259 136.943 570.383 176.389C611.568 194.643 656.138 201.806 696.677 196.684C720.38 193.69 755.021 180.56 776.069 168.039C791.019 159.145 798.449 149.707 793.193 148.24C756.358 151.33 716.613 143.951 679.989 127.221C584.002 84.168 590.455 79.0546 599.504 58.8785C588.953 82.4025 576.634 90.438 593.964 92.0043Z" fill="#FFC107"/>
<path d="M347.014 128.576C357.387 122.283 388.711 112.286 404.913 104.787C378.604 165.681 344.533 159.447 411.445 136.313C400.509 162.636 372.858 170.905 437.455 143.191C445.76 163.5 469.904 203.072 351.229 219.569C301.946 226.209 251.798 220.808 209.132 204.264C184.186 194.592 149.943 171.706 130.287 153.259C116.325 140.156 110.656 128.628 116.727 128.643C155.891 142.112 200.86 145.936 244.811 139.535C359.802 123.55 354.098 116.621 349.391 93.9032C354.879 120.39 366.205 131.894 347.014 128.576Z" fill="#FFC107"/>
<path d="M214.998 169.761C212.864 169.761 210.817 170.471 209.308 171.735C207.799 172.998 206.951 174.712 206.951 176.5C206.951 178.287 207.799 180.001 209.308 181.265C210.817 182.528 212.864 183.238 214.998 183.238C217.133 183.238 219.18 182.528 220.689 181.265C222.198 180.001 223.046 178.287 223.046 176.5C223.046 174.712 222.198 172.998 220.689 171.735C219.18 170.471 217.133 169.761 214.998 169.761ZM231.069 149.572C228.937 149.572 226.892 150.281 225.384 151.543C223.877 152.806 223.03 154.518 223.03 156.304C223.03 158.089 223.877 159.801 225.384 161.064C226.892 162.326 228.937 163.036 231.069 163.036C233.201 163.036 235.246 162.326 236.754 161.064C238.261 159.801 239.108 158.089 239.108 156.304C239.108 154.518 238.261 152.806 236.754 151.543C235.246 150.281 233.201 149.572 231.069 149.572ZM247.156 169.761C245.021 169.761 242.974 170.471 241.465 171.735C239.956 172.998 239.108 174.712 239.108 176.5C239.108 178.287 239.956 180.001 241.465 181.265C242.974 182.528 245.021 183.238 247.156 183.238C249.29 183.238 251.337 182.528 252.846 181.265C254.355 180.001 255.203 178.287 255.203 176.5C255.203 174.712 254.355 172.998 252.846 171.735C251.337 170.471 249.29 169.761 247.156 169.761Z" fill="#F57C00"/>
</svg>
