<svg width="1454" height="1454" viewBox="0 0 1454 1454" fill="none" xmlns="http://www.w3.org/2000/svg">
<path d="M1182.91 1327.13C1311.88 1263.79 1359.93 1175.12 1418.1 1061.12C1418.1 1033.26 1387.75 1099.12 1248.66 1096.59C827.362 1096.59 484.618 767.842 484.618 357.52C483.179 200.482 500.403 148.593 593.66 22.4383C422.211 58.5685 376.169 116.173 244.664 232.709C133.85 368.802 45.9145 497.811 44.8765 673.516C44.8765 1096.98 369.702 1436.02 804.519 1436.02C938.71 1437.47 1064.92 1391.26 1182.91 1327.13Z" fill="#F57C00"/>
<path d="M602.838 673.158C641.374 678.056 676.868 696.049 711.466 713.762C723.678 720.018 735.954 726.313 746.842 734.665C758.802 743.837 768.789 755.28 778.467 766.841C820.339 816.796 858.96 872.126 873.307 935.749C892.014 1018.74 866.663 1106.75 822.495 1179.39C822.495 1179.39 775.73 1240.03 676.329 1167.39C576.928 1094.75 602.838 673.158 602.838 673.158Z" fill="#F58420"/>
<path d="M575.45 497.505C613.985 502.404 649.48 520.396 684.077 538.109C696.29 544.366 708.565 550.66 719.454 559.012C731.413 568.185 741.401 579.628 751.079 591.189C792.95 641.144 831.572 696.473 845.919 760.097C864.626 843.086 839.274 931.098 795.107 1003.73C795.107 1003.73 748.342 1064.38 648.941 991.737C549.539 919.093 575.45 497.505 575.45 497.505Z" fill="#F58420"/>
<path d="M171.808 738.835C161.848 722.752 153.374 704.953 152.843 686.048C152.296 667.134 161.365 646.969 178.538 639.069C195.701 631.184 219.937 640.537 223.507 659.12C224.93 646.007 226.352 632.894 227.775 619.781C229.888 600.273 232.417 579.71 244.325 564.152C256.233 548.593 280.954 541.112 295.686 554.024C301.353 558.987 305.823 566.775 313.349 567.267C318.762 551.164 328.406 536.481 333.802 520.368C338.825 505.422 347.24 487.757 362.945 487.002C369.122 486.702 375.088 489.321 380.489 492.34C402.787 504.81 416.169 524.024 424.994 548.04C442.249 526.11 452.801 499.026 472.649 479.4C492.497 459.774 527.958 450.762 547.196 471.005C557.599 481.937 560.15 498.6 557.381 513.448C554.613 528.295 547.231 541.817 539.826 554.978C558.015 520.532 603.68 503.682 639.856 518.082C650.18 522.198 660.453 529.657 662.609 540.576C664.049 547.908 661.561 555.416 658.661 562.307C649.293 584.598 635.311 604.912 617.838 621.597C644.73 602.977 677.058 592.38 709.749 591.49C719.622 591.221 729.944 591.941 738.442 597.002C758.995 609.268 758.623 639.01 753.409 662.414C748.632 683.863 737.863 708.595 716.147 711.579C739.458 697.98 763.072 684.238 789.045 676.88C815.008 669.538 843.985 669.15 867.918 681.649C871.239 683.391 874.598 685.504 876.404 688.791C878.548 692.674 878.163 697.403 877.42 701.787C871.105 739.543 841.504 772.371 804.662 782.487C830.077 791.288 859.543 783.034 883.984 794.251C910.136 806.239 922.703 840.412 912.569 867.378C902.436 894.343 872.523 911.555 843.877 909.074C875.924 907.339 902.244 902.911 934.347 902.71C939.694 902.671 945.43 902.78 949.806 905.876C953.588 908.549 955.668 913.046 957 917.484C965.234 944.8 951.383 973.723 935.147 997.139C924.327 1012.77 911.855 1027.85 895.367 1037.25C878.885 1046.68 863.397 1053.01 846.703 1043.94C867.535 1046.3 884.17 1047.98 886.291 1068.86C887.51 1080.87 879.003 1092.21 868.332 1097.79C857.661 1103.37 837.962 1126.65 825.931 1126.97C775.897 1128.3 736.791 1154.41 689.529 1137.85L171.808 738.835Z" fill="#38B47B"/>
<path d="M725.645 1003.08C727.758 1003.73 741.403 1001.88 743.421 1000.95C762.864 991.977 783.42 981.918 794.294 963.45C799.75 954.185 802.274 943.542 804.734 933.079C806.097 927.264 807.544 921.129 805.817 915.431C798.996 892.819 778.138 868.29 771.378 859.142C771.378 859.142 761.677 836.839 702.765 830.923L725.645 1003.08Z" fill="#EF4823"/>
<path d="M556.467 589.129C556.467 589.129 652.768 581.015 685.649 677.015L627.867 721.963L537.148 657.473L556.467 589.129Z" fill="#A37B57"/>
<path d="M632.36 700.518C629.159 700.241 629.401 695.425 630.811 692.533C642.883 667.585 668.456 649.17 696.098 647.715C709.042 647.036 722.28 649.994 733.368 656.747C749.263 666.421 760.026 683.664 763.086 702.048C766.145 720.433 754.844 752.418 756.77 751.816C756.77 751.816 736.803 825.471 696.782 827.315C656.746 829.15 632.36 700.518 632.36 700.518Z" fill="#EF4823"/>
<path d="M439.603 597.548C440.476 588.498 446.045 580.563 452.51 574.213C458.974 567.863 466.52 562.643 472.892 556.193C478.549 550.465 483.367 543.709 490.148 539.399C499.881 533.214 512.449 532.982 523.56 536.115C534.646 539.254 544.62 545.401 554.422 551.51C561.67 556.011 569.309 560.946 572.853 568.72C577.607 579.182 576.586 598.935 572.5 609.68C569.196 618.329 550.618 643.944 551.22 645.112L439.603 597.548Z" fill="#EF4823"/>
<path d="M703.148 1093.97C719.728 1102.04 740.331 1101.12 756.132 1091.64C763.121 1087.45 769.09 1081.78 774.983 1076.13C782.997 1068.43 791.104 1060.5 796.376 1050.71C803.129 1038.2 804.739 1023 800.777 1009.34C796.815 995.679 779.022 971.04 767.738 962.406C746.242 945.959 725.27 926.106 682.254 920.855L703.148 1093.97Z" fill="#A37B57"/>
<path d="M400.276 576.35C400.276 576.35 331.244 514.93 291.278 572.431C251.312 629.932 316.3 686.039 316.3 686.039L400.276 576.35Z" fill="#EF4823"/>
<path d="M482.29 612.392C481.894 592.829 475.85 557.672 460.101 546.127C444.352 534.582 425.145 528.72 405.994 524.938C400.92 523.944 395.635 523.085 390.65 524.475C386.049 525.769 382.218 528.855 378.503 531.858C368.732 539.806 358.486 548.402 354.415 560.353C351.613 568.564 352.069 577.5 352.554 586.171C353.079 595.606 353.321 605.044 354.124 614.451C354.943 623.976 364.113 639.169 366.096 641.584L482.29 612.392Z" fill="#A37B57"/>
<path d="M691.78 791.003C689.63 783.982 696.411 777.648 702.557 773.674C720.065 762.32 739.228 752.879 759.821 749.631C780.423 746.367 802.664 749.816 819.459 762.188C836.255 774.56 846.438 796.675 841.739 817.017C836.446 839.939 815.032 855.226 793.908 865.509C787.703 868.534 781.357 871.322 774.671 873.012C751.299 878.935 726.557 870.823 705.39 859.253C706.944 859.885 708.498 860.518 710.052 861.151L691.78 791.003Z" fill="#A37B57"/>
<path d="M730.737 618.156C769.272 623.055 804.766 641.047 839.364 658.76C851.576 665.017 863.852 671.311 874.74 679.663C886.7 688.836 896.688 700.279 906.366 711.84C948.237 761.795 986.859 817.124 1001.21 880.748C1019.91 963.737 994.561 1051.75 950.394 1124.39C950.394 1124.39 903.628 1185.03 804.227 1112.39C704.826 1039.74 730.737 618.156 730.737 618.156Z" fill="#F58420"/>
<path d="M327.095 859.486C317.135 843.402 308.661 825.604 308.13 806.699C307.583 787.785 316.652 767.62 333.825 759.72C350.988 751.835 375.224 761.188 378.794 779.771C380.216 766.658 381.639 753.545 383.061 740.432C385.174 720.924 387.703 700.361 399.611 684.803C411.519 669.244 436.24 661.762 450.973 674.675C456.64 679.638 461.109 687.426 468.636 687.918C474.048 671.815 483.692 657.132 489.089 641.019C494.111 626.073 502.526 608.408 518.232 607.653C524.409 607.353 530.375 609.972 535.776 612.991C558.074 625.461 571.456 644.675 580.28 668.691C597.536 646.761 608.087 619.677 627.935 600.051C647.783 580.425 683.244 571.413 702.482 591.656C712.886 602.588 715.436 619.251 712.668 634.099C709.9 648.946 702.517 662.468 695.113 675.629C713.302 641.183 758.967 624.333 795.142 638.733C805.467 642.849 815.74 650.308 817.895 661.227C819.336 668.559 816.847 676.067 813.948 682.958C804.579 705.249 790.598 725.563 773.125 742.248C800.016 723.628 832.345 713.031 865.035 712.14C874.909 711.872 885.231 712.592 893.729 717.653C914.281 729.919 913.909 759.661 908.696 783.065C903.919 804.514 893.149 829.246 871.434 832.23C894.745 818.631 918.359 804.889 944.331 797.531C970.294 790.189 999.272 789.801 1023.2 802.3C1026.53 804.042 1029.88 806.155 1031.69 809.442C1033.83 813.325 1033.45 818.054 1032.71 822.438C1026.39 860.194 996.79 893.022 959.949 903.138C985.364 911.939 1014.83 903.685 1039.27 914.902C1065.42 926.89 1077.99 961.063 1067.86 988.028C1057.72 1014.99 1027.81 1032.21 999.164 1029.73C1031.21 1027.99 1057.53 1023.56 1089.63 1023.36C1094.98 1023.32 1100.72 1023.43 1105.09 1026.53C1108.88 1029.2 1110.95 1033.7 1112.29 1038.14C1120.52 1065.45 1106.67 1094.37 1090.43 1117.79C1079.61 1133.42 1067.14 1148.5 1050.65 1157.91C1034.17 1167.33 1018.68 1173.66 1001.99 1164.59C1022.82 1166.95 1039.46 1168.63 1041.58 1189.51C1042.8 1201.52 1034.29 1212.86 1023.62 1218.44C1012.95 1224.02 993.249 1247.3 981.218 1247.62C931.184 1248.95 892.077 1275.07 844.815 1258.51L327.095 859.486Z" fill="#7CB56B"/>
<path d="M880.932 1123.74C883.044 1124.38 896.689 1122.53 898.707 1121.6C918.151 1112.63 938.706 1102.57 949.58 1084.1C955.036 1074.84 957.56 1064.19 960.02 1053.73C961.383 1047.91 962.83 1041.78 961.103 1036.08C954.282 1013.47 933.424 988.941 926.664 979.793C926.664 979.793 916.963 957.49 858.051 951.573L880.932 1123.74Z" fill="#EF4823"/>
<path d="M711.755 709.78C711.755 709.78 808.055 701.666 840.937 797.666L783.155 842.614L692.436 778.124L711.755 709.78Z" fill="#A37B57"/>
<path d="M787.647 821.169C784.445 820.892 784.687 816.076 786.098 813.184C798.17 788.236 823.743 769.821 851.385 768.366C864.329 767.687 877.566 770.645 888.654 777.398C904.549 787.072 915.313 804.315 918.372 822.699C921.432 841.084 910.131 873.069 912.056 872.467C912.056 872.467 892.09 946.122 852.069 947.966C812.032 949.801 787.647 821.169 787.647 821.169Z" fill="#EF4823"/>
<path d="M594.89 718.199C595.762 709.149 601.332 701.214 607.796 694.864C614.261 688.514 621.807 683.294 628.179 676.844C633.835 671.116 638.653 664.36 645.435 660.05C655.168 653.865 667.735 653.633 678.847 656.766C689.932 659.905 699.907 666.052 709.709 672.161C716.956 676.662 724.596 681.597 728.14 689.371C732.894 699.833 731.872 719.586 727.787 730.331C724.483 738.98 705.905 764.595 706.507 765.763L594.89 718.199Z" fill="#EF4823"/>
<path d="M858.436 1214.62C875.016 1222.69 895.618 1221.77 911.42 1212.29C918.409 1208.1 924.378 1202.43 930.271 1196.78C938.285 1189.08 946.392 1181.15 951.664 1171.36C958.416 1158.85 960.026 1143.65 956.064 1129.99C952.103 1116.33 934.309 1091.69 923.026 1083.06C901.53 1066.61 880.558 1046.76 837.542 1041.51L858.436 1214.62Z" fill="#A37B57"/>
<path d="M555.563 697.001C555.563 697.001 486.531 635.581 446.566 693.082C406.6 750.583 471.587 806.69 471.587 806.69L555.563 697.001Z" fill="#EF4823"/>
<path d="M637.579 733.043C637.183 713.48 631.138 678.323 615.389 666.778C599.64 655.233 580.433 649.371 561.282 645.589C556.208 644.595 550.923 643.736 545.938 645.126C541.337 646.42 537.507 649.506 533.791 652.509C524.021 660.457 513.774 669.053 509.703 681.004C506.901 689.215 507.357 698.151 507.842 706.822C508.367 716.257 508.609 725.695 509.412 735.102C510.231 744.627 519.401 759.82 521.384 762.235L637.579 733.043Z" fill="#A37B57"/>
<path d="M847.068 911.653C844.918 904.633 851.698 898.299 857.844 894.324C875.353 882.971 894.516 873.529 915.108 870.282C935.71 867.018 957.952 870.467 974.747 882.839C991.542 895.211 1001.73 917.326 997.026 937.668C991.733 960.59 970.32 975.877 949.196 986.159C942.99 989.184 936.645 991.972 929.959 993.663C906.586 999.586 881.844 991.474 860.678 979.904C862.232 980.536 863.786 981.169 865.339 981.801L847.068 911.653Z" fill="#A37B57"/>
<path d="M1416.48 1052.82C1439.3 1091.19 1393.37 1143.92 1358.16 1186.74C1300.93 1256.32 1214.78 1321.32 1145.09 1358.93C1032.53 1419.68 906.261 1450.84 778.232 1449.47C363.378 1449.47 26.9258 1124.11 26.9258 722.954C27.9161 556.504 86.1173 395.411 191.843 266.487C253.659 191.107 383.714 94.1726 483.348 42.1487C554.119 5.19521 612.055 -5.5828 608.018 14.3552C519.043 133.865 471.646 279.017 473.019 427.784C473.019 816.491 798.896 1131.61 1200.85 1131.61C1257.42 1132.56 1388.32 1113.62 1416.48 1052.82Z" fill="#FFC107"/>
<path d="M298.442 353.594C293.083 353.594 287.943 355.771 284.153 359.645C280.363 363.52 278.234 368.775 278.234 374.254C278.234 379.733 280.363 384.988 284.153 388.862C287.943 392.737 293.083 394.914 298.442 394.914C303.802 394.914 308.942 392.737 312.731 388.862C316.521 384.988 318.65 379.733 318.65 374.254C318.65 368.775 316.521 363.52 312.731 359.645C308.942 355.771 303.802 353.594 298.442 353.594ZM338.797 291.698C333.443 291.698 328.309 293.872 324.523 297.743C320.737 301.613 318.61 306.863 318.61 312.337C318.61 317.81 320.737 323.06 324.523 326.931C328.309 330.801 333.443 332.976 338.797 332.976C344.152 332.976 349.286 330.801 353.072 326.931C356.858 323.06 358.985 317.81 358.985 312.337C358.985 306.863 356.858 301.613 353.072 297.743C349.286 293.872 344.152 291.698 338.797 291.698ZM379.193 353.594C373.834 353.594 368.694 355.771 364.904 359.645C361.114 363.52 358.985 368.775 358.985 374.254C358.985 379.733 361.114 384.988 364.904 388.862C368.694 392.737 373.834 394.914 379.193 394.914C384.553 394.914 389.693 392.737 393.482 388.862C397.272 384.988 399.401 379.733 399.401 374.254C399.401 368.775 397.272 363.52 393.482 359.645C389.693 355.771 384.553 353.594 379.193 353.594Z" fill="#F57C00"/>
<path d="M994.123 428.769C996.569 428.264 998.967 429.839 999.473 432.283C1007.61 471.619 982.235 510.246 942.899 518.389C903.565 526.531 864.936 501.151 856.796 461.817C856.289 459.37 857.861 456.973 860.31 456.468L994.123 428.769Z" fill="#F96300"/>
<path d="M619.763 358.417C637.37 369.985 661.021 365.09 672.589 347.483C684.157 329.877 679.261 306.226 661.655 294.658C644.048 283.09 620.397 287.985 608.829 305.592C597.261 323.198 602.156 346.849 619.763 358.417Z" fill="#61D16B"/>
<path d="M978.964 653.487C992.428 662.334 1010.51 658.59 1019.36 645.126C1028.21 631.662 1024.46 613.576 1011 604.73C997.535 595.884 979.449 599.627 970.603 613.091C961.757 626.555 965.5 644.641 978.964 653.487Z" fill="#FFEA33"/>
<path d="M878.535 340.502C896.142 352.07 919.793 347.174 931.361 329.568C942.929 311.961 938.033 288.31 920.427 276.742C902.82 265.174 879.169 270.069 867.601 287.676C856.033 305.283 860.928 328.934 878.535 340.502Z" fill="#C14616"/>
</svg>
