<svg width="943" height="511" viewBox="0 0 943 511" fill="none" xmlns="http://www.w3.org/2000/svg">
<ellipse cx="471.5" cy="432" rx="471.5" ry="79" fill="#C4C4C4"/>
<path d="M356.576 4.34938L586.424 3.72726L615 432.364H328L356.576 4.34938Z" fill="#FFD15B"/>
<path d="M365.273 378.939H526.788L396.955 432.364H365.273V378.939Z" fill="black" fill-opacity="0.24"/>
<path d="M390.121 383.939C390.121 381.178 392.36 378.939 395.121 378.939H546.636C549.398 378.939 551.636 381.178 551.636 383.939V427.364C551.636 430.125 549.398 432.364 546.636 432.364H395.121C392.36 432.364 390.121 430.125 390.121 427.364V383.939Z" fill="#C4C4C4"/>
<path d="M414.97 306.879C414.97 296.586 423.313 288.242 433.606 288.242H508.152C518.444 288.242 526.788 296.586 526.788 306.879V306.879C526.788 317.171 518.444 325.515 508.152 325.515H433.606C423.313 325.515 414.97 317.171 414.97 306.879V306.879Z" fill="#5F99D7"/>
<path d="M402.545 0H432.364V21.0909C432.364 23.8523 430.125 26.0909 427.364 26.0909H407.545C404.784 26.0909 402.545 23.8523 402.545 21.0909V0Z" fill="#685E68"/>
<path d="M509.394 0H539.212V21.0909C539.212 23.8523 536.974 26.0909 534.212 26.0909H514.394C511.633 26.0909 509.394 23.8523 509.394 21.0909V0Z" fill="#685E68"/>
<path d="M462.805 86.1254C466.638 79.3776 476.362 79.3776 480.195 86.1254L561.465 229.197C565.252 235.864 560.437 244.136 552.77 244.136H390.23C382.563 244.136 377.748 235.864 381.535 229.197L462.805 86.1254Z" fill="#FE7D43"/>
<path d="M455.97 167.727V154.061H443.545V167.727L436.091 183.879V188.227L442.303 202.515L444.788 208.727L455.348 202.515L449.136 186.364L449.758 182.015H451L462.803 196.924L485.788 204.379L487.03 205.621L498.833 223.015L506.909 222.394L509.394 219.288L506.909 211.833L503.803 210.591L495.106 195.061L481.439 189.47L488.273 186.364L502.561 192.576H506.909L509.394 190.712L506.288 180.773L503.803 180.152L488.894 173.318H484.545L467.152 182.636L455.97 167.727Z" fill="#F3F0F3"/>
<circle cx="449.136" cy="152.197" r="11.803" fill="#F3F0F3"/>
<circle cx="449.758" cy="205" r="6.21212" fill="#F3F0F3"/>
<circle cx="506.909" cy="216.182" r="6.21212" fill="#F3F0F3"/>
<circle cx="507.53" cy="184.5" r="6.83333" fill="#F3F0F3"/>
</svg>
